#include <stdint.h>
const uint8_t midifile[] = {
  0x4d, 0x54, 0x68, 0x64, 0x00, 0x00, 0x00, 0x06, 0x00, 0x01, 0x00, 0x02,
  0x04, 0x00, 0x4d, 0x54, 0x72, 0x6b, 0x00, 0x00, 0x07, 0xee, 0x00, 0xff,
  0x54, 0x05, 0x60, 0x00, 0x00, 0x00, 0x00, 0x00, 0xff, 0x58, 0x04, 0x04,
  0x02, 0x18, 0x08, 0x00, 0xff, 0x59, 0x02, 0x00, 0x00, 0x00, 0xff, 0x51,
  0x03, 0x07, 0xa1, 0x1f, 0x00, 0xff, 0x51, 0x03, 0x06, 0x1a, 0x80, 0x00,
  0xff, 0x51, 0x03, 0x06, 0x1a, 0x80, 0x81, 0xf0, 0x00, 0xff, 0x51, 0x03,
  0x06, 0x1a, 0x80, 0x82, 0x00, 0xff, 0x51, 0x03, 0x06, 0x20, 0x04, 0x82,
  0x00, 0xff, 0x51, 0x03, 0x06, 0x25, 0x92, 0x82, 0x00, 0xff, 0x51, 0x03,
  0x06, 0x2a, 0x89, 0x82, 0x00, 0xff, 0x51, 0x03, 0x06, 0x2a, 0x89, 0x82,
  0x00, 0xff, 0x51, 0x03, 0x06, 0x30, 0x2a, 0x82, 0x00, 0xff, 0x51, 0x03,
  0x06, 0x35, 0x32, 0x82, 0x00, 0xff, 0x51, 0x03, 0x06, 0x3a, 0xe6, 0x82,
  0x00, 0xff, 0x51, 0x03, 0x06, 0x1a, 0x80, 0x90, 0x00, 0xff, 0x51, 0x03,
  0x06, 0x1a, 0x80, 0x82, 0x00, 0xff, 0x51, 0x03, 0x06, 0x20, 0x04, 0x82,
  0x00, 0xff, 0x51, 0x03, 0x06, 0x25, 0x92, 0x82, 0x00, 0xff, 0x51, 0x03,
  0x06, 0x2a, 0x89, 0x82, 0x00, 0xff, 0x51, 0x03, 0x06, 0x2a, 0x89, 0x82,
  0x00, 0xff, 0x51, 0x03, 0x06, 0x30, 0x2a, 0x82, 0x00, 0xff, 0x51, 0x03,
  0x06, 0x35, 0x32, 0x82, 0x00, 0xff, 0x51, 0x03, 0x06, 0x3a, 0xe6, 0x82,
  0x00, 0xff, 0x51, 0x03, 0x06, 0x1a, 0x80, 0x90, 0x00, 0xff, 0x51, 0x03,
  0x06, 0x1a, 0x80, 0x82, 0x00, 0xff, 0x51, 0x03, 0x06, 0x20, 0x04, 0x82,
  0x00, 0xff, 0x51, 0x03, 0x06, 0x25, 0x92, 0x82, 0x00, 0xff, 0x51, 0x03,
  0x06, 0x2a, 0x89, 0x82, 0x00, 0xff, 0x51, 0x03, 0x06, 0x2a, 0x89, 0x82,
  0x00, 0xff, 0x51, 0x03, 0x06, 0x30, 0x2a, 0x82, 0x00, 0xff, 0x51, 0x03,
  0x06, 0x35, 0x32, 0x82, 0x00, 0xff, 0x51, 0x03, 0x06, 0x3a, 0xe6, 0x82,
  0x00, 0xff, 0x51, 0x03, 0x06, 0x1a, 0x80, 0x90, 0x00, 0xff, 0x51, 0x03,
  0x06, 0x1a, 0x80, 0x82, 0x00, 0xff, 0x51, 0x03, 0x06, 0x25, 0x92, 0x82,
  0x00, 0xff, 0x51, 0x03, 0x06, 0x30, 0x2a, 0x82, 0x00, 0xff, 0x51, 0x03,
  0x06, 0x35, 0x32, 0x82, 0x00, 0xff, 0x51, 0x03, 0x06, 0x40, 0x00, 0x82,
  0x00, 0xff, 0x51, 0x03, 0x06, 0x45, 0xc8, 0x82, 0x00, 0xff, 0x51, 0x03,
  0x06, 0x50, 0xd1, 0x82, 0x00, 0xff, 0x51, 0x03, 0x06, 0x56, 0x11, 0x84,
  0x00, 0xff, 0x51, 0x03, 0x06, 0x1a, 0x80, 0xae, 0x00, 0xff, 0x51, 0x03,
  0x06, 0x1a, 0x80, 0x82, 0x00, 0xff, 0x51, 0x03, 0x06, 0x20, 0x04, 0x82,
  0x00, 0xff, 0x51, 0x03, 0x06, 0x25, 0x92, 0x82, 0x00, 0xff, 0x51, 0x03,
  0x06, 0x2a, 0x89, 0x82, 0x00, 0xff, 0x51, 0x03, 0x06, 0x2a, 0x89, 0x82,
  0x00, 0xff, 0x51, 0x03, 0x06, 0x30, 0x2a, 0x82, 0x00, 0xff, 0x51, 0x03,
  0x06, 0x35, 0x32, 0x82, 0x00, 0xff, 0x51, 0x03, 0x06, 0x3a, 0xe6, 0x82,
  0x00, 0xff, 0x51, 0x03, 0x06, 0x1a, 0x80, 0x90, 0x00, 0xff, 0x51, 0x03,
  0x06, 0x1a, 0x80, 0x82, 0x00, 0xff, 0x51, 0x03, 0x06, 0x25, 0x92, 0x82,
  0x00, 0xff, 0x51, 0x03, 0x06, 0x30, 0x2a, 0x82, 0x00, 0xff, 0x51, 0x03,
  0x06, 0x35, 0x32, 0x82, 0x00, 0xff, 0x51, 0x03, 0x06, 0x40, 0x00, 0x82,
  0x00, 0xff, 0x51, 0x03, 0x06, 0x45, 0xc8, 0x82, 0x00, 0xff, 0x51, 0x03,
  0x06, 0x50, 0xd1, 0x82, 0x00, 0xff, 0x51, 0x03, 0x06, 0x56, 0x11, 0x84,
  0x00, 0xff, 0x51, 0x03, 0x06, 0x1a, 0x80, 0xce, 0x00, 0xff, 0x51, 0x03,
  0x06, 0x1a, 0x80, 0x82, 0x00, 0xff, 0x51, 0x03, 0x06, 0x20, 0x04, 0x82,
  0x00, 0xff, 0x51, 0x03, 0x06, 0x25, 0x92, 0x82, 0x00, 0xff, 0x51, 0x03,
  0x06, 0x2a, 0x89, 0x82, 0x00, 0xff, 0x51, 0x03, 0x06, 0x2a, 0x89, 0x82,
  0x00, 0xff, 0x51, 0x03, 0x06, 0x30, 0x2a, 0x82, 0x00, 0xff, 0x51, 0x03,
  0x06, 0x35, 0x32, 0x82, 0x00, 0xff, 0x51, 0x03, 0x06, 0x3a, 0xe6, 0x82,
  0x00, 0xff, 0x51, 0x03, 0x06, 0x1a, 0x80, 0x90, 0x00, 0xff, 0x51, 0x03,
  0x06, 0x1a, 0x80, 0x82, 0x00, 0xff, 0x51, 0x03, 0x06, 0x20, 0x04, 0x82,
  0x00, 0xff, 0x51, 0x03, 0x06, 0x25, 0x92, 0x82, 0x00, 0xff, 0x51, 0x03,
  0x06, 0x2a, 0x89, 0x82, 0x00, 0xff, 0x51, 0x03, 0x06, 0x2a, 0x89, 0x82,
  0x00, 0xff, 0x51, 0x03, 0x06, 0x30, 0x2a, 0x82, 0x00, 0xff, 0x51, 0x03,
  0x06, 0x35, 0x32, 0x82, 0x00, 0xff, 0x51, 0x03, 0x06, 0x3a, 0xe6, 0x82,
  0x00, 0xff, 0x51, 0x03, 0x06, 0x1a, 0x80, 0x90, 0x00, 0xff, 0x51, 0x03,
  0x06, 0x1a, 0x80, 0x82, 0x00, 0xff, 0x51, 0x03, 0x06, 0x25, 0x92, 0x82,
  0x00, 0xff, 0x51, 0x03, 0x06, 0x30, 0x2a, 0x82, 0x00, 0xff, 0x51, 0x03,
  0x06, 0x35, 0x32, 0x82, 0x00, 0xff, 0x51, 0x03, 0x06, 0x40, 0x00, 0x82,
  0x00, 0xff, 0x51, 0x03, 0x06, 0x45, 0xc8, 0x82, 0x00, 0xff, 0x51, 0x03,
  0x06, 0x50, 0xd1, 0x82, 0x00, 0xff, 0x51, 0x03, 0x06, 0x56, 0x11, 0x84,
  0x00, 0xff, 0x51, 0x03, 0x06, 0x1a, 0x80, 0xae, 0x00, 0xff, 0x51, 0x03,
  0x06, 0x1a, 0x80, 0x82, 0x00, 0xff, 0x51, 0x03, 0x06, 0x20, 0x04, 0x82,
  0x00, 0xff, 0x51, 0x03, 0x06, 0x25, 0x92, 0x82, 0x00, 0xff, 0x51, 0x03,
  0x06, 0x2a, 0x89, 0x82, 0x00, 0xff, 0x51, 0x03, 0x06, 0x2a, 0x89, 0x82,
  0x00, 0xff, 0x51, 0x03, 0x06, 0x30, 0x2a, 0x82, 0x00, 0xff, 0x51, 0x03,
  0x06, 0x35, 0x32, 0x82, 0x00, 0xff, 0x51, 0x03, 0x06, 0x3a, 0xe6, 0x82,
  0x00, 0xff, 0x51, 0x03, 0x06, 0x1a, 0x80, 0x90, 0x00, 0xff, 0x51, 0x03,
  0x06, 0x1a, 0x80, 0x82, 0x00, 0xff, 0x51, 0x03, 0x06, 0x25, 0x92, 0x82,
  0x00, 0xff, 0x51, 0x03, 0x06, 0x30, 0x2a, 0x82, 0x00, 0xff, 0x51, 0x03,
  0x06, 0x35, 0x32, 0x82, 0x00, 0xff, 0x51, 0x03, 0x06, 0x40, 0x00, 0x82,
  0x00, 0xff, 0x51, 0x03, 0x06, 0x45, 0xc8, 0x82, 0x00, 0xff, 0x51, 0x03,
  0x06, 0x50, 0xd1, 0x82, 0x00, 0xff, 0x51, 0x03, 0x06, 0x56, 0x11, 0x84,
  0x00, 0xff, 0x51, 0x03, 0x06, 0x1a, 0x80, 0xbe, 0x00, 0xff, 0x58, 0x04,
  0x03, 0x02, 0x18, 0x08, 0xec, 0x00, 0xff, 0x51, 0x03, 0x06, 0x1a, 0x80,
  0x81, 0x36, 0xff, 0x51, 0x03, 0x06, 0x20, 0x04, 0x81, 0x36, 0xff, 0x51,
  0x03, 0x06, 0x25, 0x92, 0x81, 0x36, 0xff, 0x51, 0x03, 0x06, 0x2a, 0x89,
  0x81, 0x36, 0xff, 0x51, 0x03, 0x06, 0x2a, 0x89, 0x81, 0x36, 0xff, 0x51,
  0x03, 0x06, 0x30, 0x2a, 0x81, 0x36, 0xff, 0x51, 0x03, 0x06, 0x35, 0x32,
  0x81, 0x36, 0xff, 0x51, 0x03, 0x06, 0x3a, 0xe6, 0x82, 0x06, 0xff, 0x51,
  0x03, 0x06, 0x1a, 0x80, 0x8c, 0x00, 0xff, 0x51, 0x03, 0x06, 0x1a, 0x80,
  0x81, 0x36, 0xff, 0x51, 0x03, 0x06, 0x25, 0x92, 0x81, 0x36, 0xff, 0x51,
  0x03, 0x06, 0x30, 0x2a, 0x81, 0x36, 0xff, 0x51, 0x03, 0x06, 0x35, 0x32,
  0x81, 0x36, 0xff, 0x51, 0x03, 0x06, 0x40, 0x00, 0x81, 0x36, 0xff, 0x51,
  0x03, 0x06, 0x45, 0xc8, 0x81, 0x36, 0xff, 0x51, 0x03, 0x06, 0x50, 0xd1,
  0x81, 0x36, 0xff, 0x51, 0x03, 0x06, 0x56, 0x11, 0x84, 0x06, 0xff, 0x51,
  0x03, 0x06, 0x1a, 0x80, 0xa2, 0x00, 0xff, 0x51, 0x03, 0x06, 0x1a, 0x80,
  0x81, 0x36, 0xff, 0x51, 0x03, 0x06, 0x25, 0x92, 0x81, 0x36, 0xff, 0x51,
  0x03, 0x06, 0x30, 0x2a, 0x81, 0x36, 0xff, 0x51, 0x03, 0x06, 0x35, 0x32,
  0x81, 0x36, 0xff, 0x51, 0x03, 0x06, 0x40, 0x00, 0x81, 0x36, 0xff, 0x51,
  0x03, 0x06, 0x45, 0xc8, 0x81, 0x36, 0xff, 0x51, 0x03, 0x06, 0x50, 0xd1,
  0x81, 0x36, 0xff, 0x51, 0x03, 0x06, 0x56, 0x11, 0x84, 0x06, 0xff, 0x51,
  0x03, 0x06, 0x1a, 0x80, 0x81, 0xbe, 0x00, 0xff, 0x58, 0x04, 0x04, 0x02,
  0x18, 0x08, 0x00, 0xff, 0x51, 0x03, 0x06, 0x1a, 0x80, 0x90, 0x00, 0xff,
  0x51, 0x03, 0x06, 0x1a, 0x80, 0x82, 0x00, 0xff, 0x51, 0x03, 0x06, 0x20,
  0x04, 0x82, 0x00, 0xff, 0x51, 0x03, 0x06, 0x25, 0x92, 0x82, 0x00, 0xff,
  0x51, 0x03, 0x06, 0x2a, 0x89, 0x82, 0x00, 0xff, 0x51, 0x03, 0x06, 0x2a,
  0x89, 0x82, 0x00, 0xff, 0x51, 0x03, 0x06, 0x30, 0x2a, 0x82, 0x00, 0xff,
  0x51, 0x03, 0x06, 0x35, 0x32, 0x82, 0x00, 0xff, 0x51, 0x03, 0x06, 0x3a,
  0xe6, 0x82, 0x00, 0xff, 0x51, 0x03, 0x06, 0x1a, 0x80, 0x90, 0x00, 0xff,
  0x51, 0x03, 0x06, 0x1a, 0x80, 0x82, 0x00, 0xff, 0x51, 0x03, 0x06, 0x20,
  0x04, 0x82, 0x00, 0xff, 0x51, 0x03, 0x06, 0x25, 0x92, 0x82, 0x00, 0xff,
  0x51, 0x03, 0x06, 0x2a, 0x89, 0x82, 0x00, 0xff, 0x51, 0x03, 0x06, 0x2a,
  0x89, 0x82, 0x00, 0xff, 0x51, 0x03, 0x06, 0x30, 0x2a, 0x82, 0x00, 0xff,
  0x51, 0x03, 0x06, 0x35, 0x32, 0x82, 0x00, 0xff, 0x51, 0x03, 0x06, 0x3a,
  0xe6, 0x82, 0x00, 0xff, 0x51, 0x03, 0x06, 0x1a, 0x80, 0x90, 0x00, 0xff,
  0x51, 0x03, 0x06, 0x1a, 0x80, 0x82, 0x00, 0xff, 0x51, 0x03, 0x06, 0x25,
  0x92, 0x82, 0x00, 0xff, 0x51, 0x03, 0x06, 0x30, 0x2a, 0x82, 0x00, 0xff,
  0x51, 0x03, 0x06, 0x35, 0x32, 0x82, 0x00, 0xff, 0x51, 0x03, 0x06, 0x40,
  0x00, 0x82, 0x00, 0xff, 0x51, 0x03, 0x06, 0x45, 0xc8, 0x82, 0x00, 0xff,
  0x51, 0x03, 0x06, 0x50, 0xd1, 0x82, 0x00, 0xff, 0x51, 0x03, 0x06, 0x56,
  0x11, 0x84, 0x00, 0xff, 0x51, 0x03, 0x06, 0x1a, 0x80, 0xae, 0x00, 0xff,
  0x51, 0x03, 0x06, 0x1a, 0x80, 0x82, 0x00, 0xff, 0x51, 0x03, 0x06, 0x20,
  0x04, 0x82, 0x00, 0xff, 0x51, 0x03, 0x06, 0x25, 0x92, 0x82, 0x00, 0xff,
  0x51, 0x03, 0x06, 0x2a, 0x89, 0x82, 0x00, 0xff, 0x51, 0x03, 0x06, 0x2a,
  0x89, 0x82, 0x00, 0xff, 0x51, 0x03, 0x06, 0x30, 0x2a, 0x82, 0x00, 0xff,
  0x51, 0x03, 0x06, 0x35, 0x32, 0x82, 0x00, 0xff, 0x51, 0x03, 0x06, 0x3a,
  0xe6, 0x82, 0x00, 0xff, 0x51, 0x03, 0x06, 0x1a, 0x80, 0x90, 0x00, 0xff,
  0x51, 0x03, 0x06, 0x1a, 0x80, 0x82, 0x00, 0xff, 0x51, 0x03, 0x06, 0x25,
  0x92, 0x82, 0x00, 0xff, 0x51, 0x03, 0x06, 0x30, 0x2a, 0x82, 0x00, 0xff,
  0x51, 0x03, 0x06, 0x35, 0x32, 0x82, 0x00, 0xff, 0x51, 0x03, 0x06, 0x40,
  0x00, 0x82, 0x00, 0xff, 0x51, 0x03, 0x06, 0x45, 0xc8, 0x82, 0x00, 0xff,
  0x51, 0x03, 0x06, 0x50, 0xd1, 0x82, 0x00, 0xff, 0x51, 0x03, 0x06, 0x56,
  0x11, 0x84, 0x00, 0xff, 0x51, 0x03, 0x06, 0x1a, 0x80, 0xce, 0x00, 0xff,
  0x51, 0x03, 0x06, 0x1a, 0x80, 0x82, 0x00, 0xff, 0x51, 0x03, 0x06, 0x20,
  0x04, 0x82, 0x00, 0xff, 0x51, 0x03, 0x06, 0x25, 0x92, 0x82, 0x00, 0xff,
  0x51, 0x03, 0x06, 0x2a, 0x89, 0x82, 0x00, 0xff, 0x51, 0x03, 0x06, 0x2a,
  0x89, 0x82, 0x00, 0xff, 0x51, 0x03, 0x06, 0x30, 0x2a, 0x82, 0x00, 0xff,
  0x51, 0x03, 0x06, 0x35, 0x32, 0x82, 0x00, 0xff, 0x51, 0x03, 0x06, 0x3a,
  0xe6, 0x82, 0x00, 0xff, 0x51, 0x03, 0x06, 0x1a, 0x80, 0x90, 0x00, 0xff,
  0x51, 0x03, 0x06, 0x1a, 0x80, 0x82, 0x00, 0xff, 0x51, 0x03, 0x06, 0x20,
  0x04, 0x82, 0x00, 0xff, 0x51, 0x03, 0x06, 0x25, 0x92, 0x82, 0x00, 0xff,
  0x51, 0x03, 0x06, 0x2a, 0x89, 0x82, 0x00, 0xff, 0x51, 0x03, 0x06, 0x2a,
  0x89, 0x82, 0x00, 0xff, 0x51, 0x03, 0x06, 0x30, 0x2a, 0x82, 0x00, 0xff,
  0x51, 0x03, 0x06, 0x35, 0x32, 0x82, 0x00, 0xff, 0x51, 0x03, 0x06, 0x3a,
  0xe6, 0x82, 0x00, 0xff, 0x51, 0x03, 0x06, 0x1a, 0x80, 0x90, 0x00, 0xff,
  0x51, 0x03, 0x06, 0x1a, 0x80, 0x82, 0x00, 0xff, 0x51, 0x03, 0x06, 0x25,
  0x92, 0x82, 0x00, 0xff, 0x51, 0x03, 0x06, 0x30, 0x2a, 0x82, 0x00, 0xff,
  0x51, 0x03, 0x06, 0x35, 0x32, 0x82, 0x00, 0xff, 0x51, 0x03, 0x06, 0x40,
  0x00, 0x82, 0x00, 0xff, 0x51, 0x03, 0x06, 0x45, 0xc8, 0x82, 0x00, 0xff,
  0x51, 0x03, 0x06, 0x50, 0xd1, 0x82, 0x00, 0xff, 0x51, 0x03, 0x06, 0x56,
  0x11, 0x84, 0x00, 0xff, 0x51, 0x03, 0x06, 0x1a, 0x80, 0xae, 0x00, 0xff,
  0x51, 0x03, 0x06, 0x1a, 0x80, 0x82, 0x00, 0xff, 0x51, 0x03, 0x06, 0x20,
  0x04, 0x82, 0x00, 0xff, 0x51, 0x03, 0x06, 0x25, 0x92, 0x82, 0x00, 0xff,
  0x51, 0x03, 0x06, 0x2a, 0x89, 0x82, 0x00, 0xff, 0x51, 0x03, 0x06, 0x2a,
  0x89, 0x82, 0x00, 0xff, 0x51, 0x03, 0x06, 0x30, 0x2a, 0x82, 0x00, 0xff,
  0x51, 0x03, 0x06, 0x35, 0x32, 0x82, 0x00, 0xff, 0x51, 0x03, 0x06, 0x3a,
  0xe6, 0x82, 0x00, 0xff, 0x51, 0x03, 0x06, 0x1a, 0x80, 0x90, 0x00, 0xff,
  0x51, 0x03, 0x06, 0x1a, 0x80, 0x82, 0x00, 0xff, 0x51, 0x03, 0x06, 0x25,
  0x92, 0x82, 0x00, 0xff, 0x51, 0x03, 0x06, 0x30, 0x2a, 0x82, 0x00, 0xff,
  0x51, 0x03, 0x06, 0x35, 0x32, 0x82, 0x00, 0xff, 0x51, 0x03, 0x06, 0x40,
  0x00, 0x82, 0x00, 0xff, 0x51, 0x03, 0x06, 0x45, 0xc8, 0x82, 0x00, 0xff,
  0x51, 0x03, 0x06, 0x50, 0xd1, 0x82, 0x00, 0xff, 0x51, 0x03, 0x06, 0x56,
  0x11, 0x84, 0x00, 0xff, 0x51, 0x03, 0x06, 0x1a, 0x80, 0xbe, 0x00, 0xff,
  0x58, 0x04, 0x03, 0x02, 0x18, 0x08, 0xec, 0x00, 0xff, 0x51, 0x03, 0x06,
  0x1a, 0x80, 0x81, 0x36, 0xff, 0x51, 0x03, 0x06, 0x20, 0x04, 0x81, 0x36,
  0xff, 0x51, 0x03, 0x06, 0x25, 0x92, 0x81, 0x36, 0xff, 0x51, 0x03, 0x06,
  0x2a, 0x89, 0x81, 0x36, 0xff, 0x51, 0x03, 0x06, 0x2a, 0x89, 0x81, 0x36,
  0xff, 0x51, 0x03, 0x06, 0x30, 0x2a, 0x81, 0x36, 0xff, 0x51, 0x03, 0x06,
  0x35, 0x32, 0x81, 0x36, 0xff, 0x51, 0x03, 0x06, 0x3a, 0xe6, 0x82, 0x06,
  0xff, 0x51, 0x03, 0x06, 0x1a, 0x80, 0x8c, 0x00, 0xff, 0x51, 0x03, 0x06,
  0x1a, 0x80, 0x81, 0x36, 0xff, 0x51, 0x03, 0x06, 0x25, 0x92, 0x81, 0x36,
  0xff, 0x51, 0x03, 0x06, 0x30, 0x2a, 0x81, 0x36, 0xff, 0x51, 0x03, 0x06,
  0x35, 0x32, 0x81, 0x36, 0xff, 0x51, 0x03, 0x06, 0x40, 0x00, 0x81, 0x36,
  0xff, 0x51, 0x03, 0x06, 0x45, 0xc8, 0x81, 0x36, 0xff, 0x51, 0x03, 0x06,
  0x50, 0xd1, 0x81, 0x36, 0xff, 0x51, 0x03, 0x06, 0x56, 0x11, 0x84, 0x06,
  0xff, 0x51, 0x03, 0x06, 0x1a, 0x80, 0xa2, 0x00, 0xff, 0x51, 0x03, 0x06,
  0x1a, 0x80, 0x81, 0x36, 0xff, 0x51, 0x03, 0x06, 0x25, 0x92, 0x81, 0x36,
  0xff, 0x51, 0x03, 0x06, 0x30, 0x2a, 0x81, 0x36, 0xff, 0x51, 0x03, 0x06,
  0x35, 0x32, 0x81, 0x36, 0xff, 0x51, 0x03, 0x06, 0x40, 0x00, 0x81, 0x36,
  0xff, 0x51, 0x03, 0x06, 0x45, 0xc8, 0x81, 0x36, 0xff, 0x51, 0x03, 0x06,
  0x50, 0xd1, 0x81, 0x36, 0xff, 0x51, 0x03, 0x06, 0x56, 0x11, 0x84, 0x06,
  0xff, 0x51, 0x03, 0x06, 0x1a, 0x80, 0x81, 0xbd, 0x48, 0xff, 0x2f, 0x00,
  0x4d, 0x54, 0x72, 0x6b, 0x00, 0x00, 0x10, 0x36, 0x00, 0xff, 0x09, 0x16,
  0x53, 0x6d, 0x61, 0x72, 0x74, 0x4d, 0x75, 0x73, 0x69, 0x63, 0x20, 0x53,
  0x6f, 0x66, 0x74, 0x53, 0x79, 0x6e, 0x74, 0x68, 0x20, 0x31, 0x00, 0xff,
  0x03, 0x05, 0x50, 0x69, 0x61, 0x6e, 0x6f, 0x00, 0xc0, 0x01, 0x00, 0xb0,
  0x07, 0x65, 0x00, 0xb0, 0x0a, 0x40, 0x00, 0xb0, 0x07, 0x66, 0x00, 0xb0,
  0x07, 0x6e, 0x03, 0xb0, 0x64, 0x00, 0x00, 0xb0, 0x65, 0x00, 0x00, 0xb0,
  0x64, 0x00, 0x00, 0xb0, 0x65, 0x00, 0x01, 0xb0, 0x06, 0x0c, 0x00, 0xb0,
  0x06, 0x0c, 0x01, 0xb0, 0x26, 0x00, 0x00, 0xb0, 0x26, 0x00, 0x05, 0xb0,
  0x07, 0x66, 0x00, 0x90, 0x24, 0x49, 0x84, 0x18, 0x90, 0x2b, 0x4b, 0x3c,
  0x80, 0x24, 0x00, 0x82, 0x64, 0xb0, 0x07, 0x6e, 0x5c, 0x90, 0x3c, 0x43,
  0x00, 0x90, 0x3e, 0x43, 0x00, 0x90, 0x43, 0x51, 0x00, 0x90, 0x30, 0x46,
  0x3c, 0x80, 0x2b, 0x00, 0x96, 0x6d, 0x80, 0x30, 0x00, 0x38, 0x80, 0x3c,
  0x00, 0x00, 0x80, 0x3e, 0x00, 0x00, 0x80, 0x43, 0x00, 0x05, 0x90, 0x24,
  0x49, 0x84, 0x1e, 0x90, 0x2b, 0x4b, 0x3c, 0x80, 0x24, 0x00, 0x83, 0x40,
  0x90, 0x3d, 0x43, 0x00, 0x90, 0x3f, 0x43, 0x00, 0x90, 0x44, 0x51, 0x00,
  0x90, 0x30, 0x46, 0x3c, 0x80, 0x2b, 0x00, 0x96, 0x6d, 0x80, 0x30, 0x00,
  0x38, 0x80, 0x3d, 0x00, 0x00, 0x80, 0x3f, 0x00, 0x00, 0x80, 0x44, 0x00,
  0x05, 0x90, 0x24, 0x49, 0x84, 0x1e, 0x90, 0x2b, 0x4b, 0x3c, 0x80, 0x24,
  0x00, 0x83, 0x40, 0x90, 0x3e, 0x43, 0x00, 0x90, 0x40, 0x43, 0x00, 0x90,
  0x45, 0x51, 0x00, 0x90, 0x30, 0x46, 0x3c, 0x80, 0x2b, 0x00, 0x96, 0x6d,
  0x80, 0x30, 0x00, 0x38, 0x80, 0x3e, 0x00, 0x00, 0x80, 0x40, 0x00, 0x00,
  0x80, 0x45, 0x00, 0x05, 0x90, 0x24, 0x49, 0x84, 0x1e, 0x90, 0x2b, 0x4b,
  0x3c, 0x80, 0x24, 0x00, 0x83, 0x40, 0x90, 0x3f, 0x43, 0x00, 0x90, 0x41,
  0x43, 0x00, 0x90, 0x46, 0x51, 0x00, 0x90, 0x30, 0x46, 0x3c, 0x80, 0x2b,
  0x00, 0x96, 0x6d, 0x80, 0x30, 0x00, 0x38, 0x80, 0x3f, 0x00, 0x00, 0x80,
  0x41, 0x00, 0x00, 0x80, 0x46, 0x00, 0x05, 0x90, 0x3e, 0x3c, 0x00, 0x90,
  0x43, 0x4a, 0x00, 0x90, 0x24, 0x49, 0x84, 0x1d, 0x80, 0x3e, 0x00, 0x00,
  0x80, 0x43, 0x00, 0x01, 0x90, 0x3e, 0x37, 0x00, 0x90, 0x43, 0x41, 0x00,
  0x90, 0x2b, 0x4b, 0x3c, 0x80, 0x24, 0x00, 0x83, 0x3f, 0x80, 0x3e, 0x00,
  0x00, 0x80, 0x43, 0x00, 0x01, 0x90, 0x3e, 0x38, 0x00, 0x90, 0x43, 0x42,
  0x00, 0x90, 0x3c, 0x4b, 0x00, 0x90, 0x30, 0x46, 0x3c, 0x80, 0x2b, 0x00,
  0x83, 0x3c, 0x80, 0x3e, 0x00, 0x00, 0x80, 0x43, 0x00, 0x01, 0x90, 0x3e,
  0x37, 0x00, 0x90, 0x43, 0x41, 0x83, 0x7d, 0x80, 0x3e, 0x00, 0x00, 0x80,
  0x43, 0x00, 0x01, 0x90, 0x3e, 0x3a, 0x00, 0x90, 0x43, 0x44, 0x83, 0x7d,
  0x80, 0x3e, 0x00, 0x00, 0x80, 0x43, 0x00, 0x01, 0x90, 0x3e, 0x37, 0x00,
  0x90, 0x43, 0x41, 0x83, 0x78, 0x80, 0x3e, 0x00, 0x00, 0x80, 0x43, 0x00,
  0x01, 0x90, 0x3e, 0x38, 0x00, 0x90, 0x43, 0x42, 0x83, 0x78, 0x80, 0x3e,
  0x00, 0x00, 0x80, 0x43, 0x00, 0x01, 0x90, 0x3e, 0x37, 0x00, 0x90, 0x43,
  0x45, 0x83, 0x42, 0x80, 0x30, 0x00, 0x38, 0x80, 0x43, 0x00, 0x00, 0x80,
  0x3c, 0x00, 0x05, 0x90, 0x3f, 0x3c, 0x00, 0x90, 0x44, 0x4a, 0x00, 0x90,
  0x24, 0x49, 0x1a, 0x80, 0x3e, 0x00, 0x84, 0x03, 0x80, 0x3f, 0x00, 0x00,
  0x80, 0x44, 0x00, 0x01, 0x90, 0x3f, 0x37, 0x00, 0x90, 0x44, 0x41, 0x00,
  0x90, 0x2b, 0x4b, 0x3c, 0x80, 0x24, 0x00, 0x83, 0x3f, 0x80, 0x3f, 0x00,
  0x00, 0x80, 0x44, 0x00, 0x01, 0x90, 0x3f, 0x38, 0x00, 0x90, 0x44, 0x42,
  0x00, 0x90, 0x3d, 0x4b, 0x00, 0x90, 0x30, 0x46, 0x3c, 0x80, 0x2b, 0x00,
  0x83, 0x3c, 0x80, 0x3f, 0x00, 0x00, 0x80, 0x44, 0x00, 0x01, 0x90, 0x3f,
  0x37, 0x00, 0x90, 0x44, 0x41, 0x83, 0x7d, 0x80, 0x3f, 0x00, 0x00, 0x80,
  0x44, 0x00, 0x01, 0x90, 0x3f, 0x3a, 0x00, 0x90, 0x44, 0x44, 0x83, 0x7d,
  0x80, 0x3f, 0x00, 0x00, 0x80, 0x44, 0x00, 0x01, 0x90, 0x3f, 0x37, 0x00,
  0x90, 0x44, 0x41, 0x83, 0x78, 0x80, 0x3f, 0x00, 0x00, 0x80, 0x44, 0x00,
  0x01, 0x90, 0x3f, 0x38, 0x00, 0x90, 0x44, 0x42, 0x83, 0x78, 0x80, 0x3f,
  0x00, 0x00, 0x80, 0x44, 0x00, 0x01, 0x90, 0x3f, 0x37, 0x00, 0x90, 0x44,
  0x45, 0x83, 0x42, 0x80, 0x30, 0x00, 0x38, 0x80, 0x44, 0x00, 0x00, 0x80,
  0x3d, 0x00, 0x05, 0x90, 0x40, 0x3c, 0x00, 0x90, 0x45, 0x4a, 0x00, 0x90,
  0x24, 0x49, 0x1a, 0x80, 0x3f, 0x00, 0x84, 0x03, 0x80, 0x40, 0x00, 0x00,
  0x80, 0x45, 0x00, 0x01, 0x90, 0x40, 0x37, 0x00, 0x90, 0x45, 0x41, 0x00,
  0x90, 0x2b, 0x4b, 0x3c, 0x80, 0x24, 0x00, 0x83, 0x3f, 0x80, 0x40, 0x00,
  0x00, 0x80, 0x45, 0x00, 0x01, 0x90, 0x40, 0x38, 0x00, 0x90, 0x45, 0x42,
  0x00, 0x90, 0x3e, 0x4b, 0x00, 0x90, 0x30, 0x46, 0x3c, 0x80, 0x2b, 0x00,
  0x83, 0x3c, 0x80, 0x40, 0x00, 0x00, 0x80, 0x45, 0x00, 0x01, 0x90, 0x40,
  0x37, 0x00, 0x90, 0x45, 0x41, 0x83, 0x7d, 0x80, 0x40, 0x00, 0x00, 0x80,
  0x45, 0x00, 0x01, 0x90, 0x40, 0x3a, 0x00, 0x90, 0x45, 0x44, 0x83, 0x7d,
  0x80, 0x40, 0x00, 0x00, 0x80, 0x45, 0x00, 0x01, 0x90, 0x40, 0x37, 0x00,
  0x90, 0x45, 0x41, 0x83, 0x78, 0x80, 0x40, 0x00, 0x00, 0x80, 0x45, 0x00,
  0x01, 0x90, 0x40, 0x38, 0x00, 0x90, 0x45, 0x42, 0x83, 0x78, 0x80, 0x40,
  0x00, 0x00, 0x80, 0x45, 0x00, 0x01, 0x90, 0x40, 0x37, 0x00, 0x90, 0x45,
  0x45, 0x83, 0x42, 0x80, 0x30, 0x00, 0x38, 0x80, 0x45, 0x00, 0x00, 0x80,
  0x3e, 0x00, 0x05, 0x90, 0x41, 0x3c, 0x00, 0x90, 0x46, 0x4a, 0x00, 0x90,
  0x24, 0x49, 0x1a, 0x80, 0x40, 0x00, 0x84, 0x03, 0x80, 0x41, 0x00, 0x00,
  0x80, 0x46, 0x00, 0x01, 0x90, 0x41, 0x37, 0x00, 0x90, 0x46, 0x41, 0x00,
  0x90, 0x2b, 0x4b, 0x3c, 0x80, 0x24, 0x00, 0x83, 0x3f, 0x80, 0x41, 0x00,
  0x00, 0x80, 0x46, 0x00, 0x01, 0x90, 0x41, 0x38, 0x00, 0x90, 0x46, 0x42,
  0x00, 0x90, 0x3f, 0x4b, 0x00, 0x90, 0x30, 0x46, 0x3c, 0x80, 0x2b, 0x00,
  0x83, 0x3c, 0x80, 0x41, 0x00, 0x00, 0x80, 0x46, 0x00, 0x01, 0x90, 0x41,
  0x37, 0x00, 0x90, 0x46, 0x41, 0x83, 0x7d, 0x80, 0x41, 0x00, 0x00, 0x80,
  0x46, 0x00, 0x01, 0x90, 0x41, 0x3a, 0x00, 0x90, 0x46, 0x44, 0x83, 0x7d,
  0x80, 0x41, 0x00, 0x00, 0x80, 0x46, 0x00, 0x01, 0x90, 0x41, 0x37, 0x00,
  0x90, 0x46, 0x41, 0x83, 0x78, 0x80, 0x41, 0x00, 0x00, 0x80, 0x46, 0x00,
  0x01, 0x90, 0x41, 0x38, 0x00, 0x90, 0x46, 0x42, 0x83, 0x78, 0x80, 0x41,
  0x00, 0x00, 0x80, 0x46, 0x00, 0x01, 0x90, 0x41, 0x37, 0x00, 0x90, 0x46,
  0x41, 0x83, 0x42, 0x80, 0x30, 0x00, 0x38, 0x80, 0x46, 0x00, 0x00, 0x80,
  0x3f, 0x00, 0x05, 0x90, 0x47, 0x4b, 0x00, 0x90, 0x29, 0x4b, 0x1a, 0x80,
  0x41, 0x00, 0x84, 0x04, 0x90, 0x30, 0x4b, 0x3c, 0x80, 0x29, 0x00, 0x83,
  0x40, 0x90, 0x40, 0x43, 0x00, 0x90, 0x43, 0x51, 0x00, 0x90, 0x35, 0x46,
  0x3c, 0x80, 0x30, 0x00, 0x8f, 0x31, 0x80, 0x47, 0x00, 0x01, 0x90, 0x45,
  0x4c, 0x83, 0x5a, 0x80, 0x45, 0x00, 0x1f, 0x90, 0x43, 0x4b, 0x83, 0x42,
  0x80, 0x35, 0x00, 0x1a, 0x80, 0x43, 0x00, 0x1e, 0x80, 0x40, 0x00, 0x00,
  0x80, 0x43, 0x00, 0x05, 0x90, 0x45, 0x4b, 0x00, 0x90, 0x2e, 0x4b, 0x84,
  0x1e, 0x90, 0x35, 0x4b, 0x3c, 0x80, 0x2e, 0x00, 0x83, 0x40, 0x90, 0x3c,
  0x43, 0x00, 0x90, 0x41, 0x51, 0x00, 0x90, 0x3a, 0x46, 0x3c, 0x80, 0x35,
  0x00, 0x96, 0x6d, 0x80, 0x3a, 0x00, 0x38, 0x80, 0x45, 0x00, 0x00, 0x80,
  0x3c, 0x00, 0x00, 0x80, 0x41, 0x00, 0x05, 0x90, 0x4a, 0x4b, 0x00, 0x90,
  0x27, 0x4a, 0x84, 0x1e, 0x90, 0x2e, 0x4b, 0x3c, 0x80, 0x27, 0x00, 0x83,
  0x40, 0x90, 0x43, 0x43, 0x00, 0x90, 0x46, 0x51, 0x00, 0x90, 0x33, 0x46,
  0x3c, 0x80, 0x2e, 0x00, 0x8f, 0x31, 0x80, 0x4a, 0x00, 0x01, 0x90, 0x48,
  0x4c, 0x83, 0x5a, 0x80, 0x48, 0x00, 0x1f, 0x90, 0x46, 0x4b, 0x83, 0x42,
  0x80, 0x33, 0x00, 0x1a, 0x80, 0x46, 0x00, 0x1e, 0x80, 0x43, 0x00, 0x00,
  0x80, 0x46, 0x00, 0x05, 0x90, 0x48, 0x4b, 0x00, 0x90, 0x2c, 0x4b, 0x84,
  0x1e, 0x90, 0x33, 0x4b, 0x3c, 0x80, 0x2c, 0x00, 0x83, 0x40, 0x90, 0x3f,
  0x43, 0x00, 0x90, 0x44, 0x51, 0x00, 0x90, 0x38, 0x46, 0x3c, 0x80, 0x33,
  0x00, 0x96, 0x6d, 0x80, 0x38, 0x00, 0x38, 0x80, 0x48, 0x00, 0x00, 0x80,
  0x3f, 0x00, 0x00, 0x80, 0x44, 0x00, 0x05, 0x90, 0x48, 0x4b, 0x00, 0x90,
  0x2d, 0x4b, 0x84, 0x1e, 0x90, 0x34, 0x4b, 0x3c, 0x80, 0x2d, 0x00, 0x83,
  0x40, 0x90, 0x40, 0x43, 0x00, 0x90, 0x45, 0x51, 0x00, 0x90, 0x39, 0x46,
  0x3c, 0x80, 0x34, 0x00, 0x8f, 0x31, 0x80, 0x48, 0x00, 0x01, 0x90, 0x47,
  0x4c, 0x83, 0x5a, 0x80, 0x47, 0x00, 0x1f, 0x90, 0x45, 0x4b, 0x83, 0x42,
  0x80, 0x39, 0x00, 0x1a, 0x80, 0x45, 0x00, 0x1e, 0x80, 0x40, 0x00, 0x00,
  0x80, 0x45, 0x00, 0x05, 0x90, 0x48, 0x4b, 0x00, 0x90, 0x26, 0x4a, 0x84,
  0x1e, 0x90, 0x2d, 0x4b, 0x3c, 0x80, 0x26, 0x00, 0x83, 0x40, 0x90, 0x40,
  0x43, 0x00, 0x90, 0x42, 0x51, 0x00, 0x90, 0x32, 0x46, 0x3c, 0x80, 0x2d,
  0x00, 0x8f, 0x31, 0x80, 0x48, 0x00, 0x01, 0x90, 0x47, 0x4c, 0x83, 0x5a,
  0x80, 0x47, 0x00, 0x1f, 0x90, 0x45, 0x4b, 0x83, 0x42, 0x80, 0x32, 0x00,
  0x1a, 0x80, 0x45, 0x00, 0x1e, 0x80, 0x40, 0x00, 0x00, 0x80, 0x42, 0x00,
  0x05, 0x90, 0x47, 0x4b, 0x00, 0x90, 0x2b, 0x4b, 0x84, 0x1e, 0x90, 0x32,
  0x4b, 0x3c, 0x80, 0x2b, 0x00, 0x83, 0x40, 0x90, 0x3e, 0x4e, 0x00, 0x90,
  0x42, 0x49, 0x00, 0x90, 0x37, 0x46, 0x3c, 0x80, 0x32, 0x00, 0x96, 0x6d,
  0x80, 0x37, 0x00, 0x3d, 0x90, 0x2b, 0x4b, 0x84, 0x1e, 0x90, 0x32, 0x4b,
  0x3c, 0x80, 0x2b, 0x00, 0x83, 0x40, 0x90, 0x37, 0x46, 0x3c, 0x80, 0x32,
  0x00, 0x96, 0x6d, 0x80, 0x37, 0x00, 0x38, 0x80, 0x47, 0x00, 0x00, 0x80,
  0x3e, 0x00, 0x00, 0x80, 0x42, 0x00, 0x05, 0x90, 0x47, 0x4b, 0x00, 0x90,
  0x29, 0x4b, 0x84, 0x1e, 0x90, 0x30, 0x4b, 0x3c, 0x80, 0x29, 0x00, 0x83,
  0x40, 0x90, 0x40, 0x43, 0x00, 0x90, 0x43, 0x51, 0x00, 0x90, 0x35, 0x46,
  0x3c, 0x80, 0x30, 0x00, 0x8f, 0x31, 0x80, 0x47, 0x00, 0x01, 0x90, 0x45,
  0x4c, 0x83, 0x5a, 0x80, 0x45, 0x00, 0x1f, 0x90, 0x43, 0x4b, 0x83, 0x42,
  0x80, 0x35, 0x00, 0x1a, 0x80, 0x43, 0x00, 0x1e, 0x80, 0x40, 0x00, 0x00,
  0x80, 0x43, 0x00, 0x05, 0x90, 0x45, 0x4b, 0x00, 0x90, 0x2e, 0x4b, 0x84,
  0x1e, 0x90, 0x35, 0x4b, 0x3c, 0x80, 0x2e, 0x00, 0x83, 0x40, 0x90, 0x3c,
  0x43, 0x00, 0x90, 0x41, 0x51, 0x00, 0x90, 0x3a, 0x46, 0x3c, 0x80, 0x35,
  0x00, 0x96, 0x6d, 0x80, 0x3a, 0x00, 0x38, 0x80, 0x45, 0x00, 0x00, 0x80,
  0x3c, 0x00, 0x00, 0x80, 0x41, 0x00, 0x05, 0x90, 0x4a, 0x4b, 0x00, 0x90,
  0x27, 0x4a, 0x84, 0x1e, 0x90, 0x2e, 0x4b, 0x3c, 0x80, 0x27, 0x00, 0x83,
  0x40, 0x90, 0x43, 0x43, 0x00, 0x90, 0x46, 0x51, 0x00, 0x90, 0x33, 0x46,
  0x3c, 0x80, 0x2e, 0x00, 0x8f, 0x31, 0x80, 0x4a, 0x00, 0x01, 0x90, 0x48,
  0x4c, 0x83, 0x5a, 0x80, 0x48, 0x00, 0x1f, 0x90, 0x46, 0x4b, 0x83, 0x42,
  0x80, 0x33, 0x00, 0x1a, 0x80, 0x46, 0x00, 0x1e, 0x80, 0x43, 0x00, 0x00,
  0x80, 0x46, 0x00, 0x05, 0x90, 0x48, 0x4b, 0x00, 0x90, 0x2c, 0x4b, 0x84,
  0x1e, 0x90, 0x33, 0x4b, 0x3c, 0x80, 0x2c, 0x00, 0x83, 0x40, 0x90, 0x3f,
  0x43, 0x00, 0x90, 0x44, 0x51, 0x00, 0x90, 0x38, 0x46, 0x3c, 0x80, 0x33,
  0x00, 0x96, 0x6d, 0x80, 0x38, 0x00, 0x38, 0x80, 0x48, 0x00, 0x00, 0x80,
  0x3f, 0x00, 0x00, 0x80, 0x44, 0x00, 0x05, 0x90, 0x48, 0x4b, 0x00, 0x90,
  0x2d, 0x4b, 0x84, 0x1e, 0x90, 0x34, 0x4b, 0x3c, 0x80, 0x2d, 0x00, 0x83,
  0x40, 0x90, 0x40, 0x43, 0x00, 0x90, 0x45, 0x51, 0x00, 0x90, 0x39, 0x46,
  0x3c, 0x80, 0x34, 0x00, 0x8f, 0x31, 0x80, 0x48, 0x00, 0x01, 0x90, 0x47,
  0x4c, 0x83, 0x5a, 0x80, 0x47, 0x00, 0x1f, 0x90, 0x45, 0x4b, 0x83, 0x42,
  0x80, 0x39, 0x00, 0x1a, 0x80, 0x45, 0x00, 0x1e, 0x80, 0x40, 0x00, 0x00,
  0x80, 0x45, 0x00, 0x05, 0x90, 0x48, 0x4b, 0x00, 0x90, 0x26, 0x4a, 0x84,
  0x1e, 0x90, 0x2d, 0x4b, 0x3c, 0x80, 0x26, 0x00, 0x83, 0x40, 0x90, 0x40,
  0x43, 0x00, 0x90, 0x42, 0x51, 0x00, 0x90, 0x32, 0x46, 0x3c, 0x80, 0x2d,
  0x00, 0x8f, 0x31, 0x80, 0x48, 0x00, 0x01, 0x90, 0x47, 0x4c, 0x83, 0x5a,
  0x80, 0x47, 0x00, 0x1f, 0x90, 0x45, 0x4b, 0x83, 0x42, 0x80, 0x32, 0x00,
  0x1a, 0x80, 0x45, 0x00, 0x1e, 0x80, 0x40, 0x00, 0x00, 0x80, 0x42, 0x00,
  0x05, 0x90, 0x47, 0x4b, 0x00, 0x90, 0x2b, 0x4b, 0x84, 0x1e, 0x90, 0x32,
  0x4b, 0x3c, 0x80, 0x2b, 0x00, 0x83, 0x40, 0x90, 0x3e, 0x4e, 0x00, 0x90,
  0x42, 0x49, 0x00, 0x90, 0x37, 0x46, 0x3c, 0x80, 0x32, 0x00, 0x96, 0x6d,
  0x80, 0x37, 0x00, 0x3d, 0x90, 0x2b, 0x4b, 0x84, 0x1e, 0x90, 0x32, 0x4b,
  0x3c, 0x80, 0x2b, 0x00, 0x83, 0x40, 0x90, 0x37, 0x46, 0x3c, 0x80, 0x32,
  0x00, 0x96, 0x6d, 0x80, 0x37, 0x00, 0x38, 0x80, 0x47, 0x00, 0x00, 0x80,
  0x3e, 0x00, 0x00, 0x80, 0x42, 0x00, 0x05, 0x90, 0x45, 0x4b, 0x00, 0x90,
  0x2e, 0x4b, 0x84, 0x1c, 0x90, 0x35, 0x4b, 0x3c, 0x80, 0x2e, 0x00, 0x83,
  0x3e, 0x90, 0x3a, 0x46, 0x3c, 0x80, 0x35, 0x00, 0x87, 0x3c, 0x90, 0x4a,
  0x4b, 0x50, 0x80, 0x45, 0x00, 0x86, 0x65, 0x80, 0x3a, 0x00, 0x3d, 0x90,
  0x45, 0x4b, 0x00, 0x90, 0x2e, 0x4b, 0x23, 0x80, 0x4a, 0x00, 0x83, 0x79,
  0x90, 0x35, 0x4b, 0x3c, 0x80, 0x2e, 0x00, 0x83, 0x3e, 0x90, 0x3a, 0x46,
  0x3c, 0x80, 0x35, 0x00, 0x87, 0x3c, 0x90, 0x4a, 0x4b, 0x50, 0x80, 0x45,
  0x00, 0x86, 0x65, 0x80, 0x3a, 0x00, 0x3d, 0x90, 0x48, 0x4b, 0x00, 0x90,
  0x2d, 0x4b, 0x23, 0x80, 0x4a, 0x00, 0x83, 0x79, 0x90, 0x34, 0x4b, 0x3c,
  0x80, 0x2d, 0x00, 0x83, 0x3e, 0x90, 0x39, 0x46, 0x3c, 0x80, 0x34, 0x00,
  0x87, 0x3c, 0x90, 0x47, 0x4b, 0x50, 0x80, 0x48, 0x00, 0x83, 0x25, 0x90,
  0x48, 0x4b, 0x3c, 0x80, 0x47, 0x00, 0x83, 0x04, 0x80, 0x39, 0x00, 0x3d,
  0x90, 0x45, 0x46, 0x00, 0x90, 0x2d, 0x4b, 0x38, 0x80, 0x48, 0x00, 0x83,
  0x64, 0x90, 0x34, 0x4b, 0x3c, 0x80, 0x2d, 0x00, 0x83, 0x3e, 0x90, 0x39,
  0x46, 0x3c, 0x80, 0x34, 0x00, 0x8e, 0x71, 0x80, 0x45, 0x00, 0x00, 0x80,
  0x39, 0x00, 0x3d, 0x90, 0x41, 0x4b, 0x00, 0x90, 0x2b, 0x4b, 0x84, 0x1c,
  0x90, 0x32, 0x4b, 0x3c, 0x80, 0x2b, 0x00, 0x83, 0x3e, 0x90, 0x37, 0x46,
  0x3c, 0x80, 0x32, 0x00, 0x87, 0x3c, 0x90, 0x46, 0x4b, 0x50, 0x80, 0x41,
  0x00, 0x86, 0x65, 0x80, 0x37, 0x00, 0x3d, 0x90, 0x41, 0x4b, 0x00, 0x90,
  0x24, 0x49, 0x23, 0x80, 0x46, 0x00, 0x83, 0x79, 0x90, 0x2b, 0x4b, 0x3c,
  0x80, 0x24, 0x00, 0x83, 0x3e, 0x90, 0x40, 0x4b, 0x00, 0x90, 0x30, 0x46,
  0x27, 0x80, 0x41, 0x00, 0x15, 0x80, 0x2b, 0x00, 0x87, 0x3c, 0x90, 0x46,
  0x4b, 0x27, 0x80, 0x40, 0x00, 0x87, 0x0e, 0x80, 0x30, 0x00, 0x3d, 0x90,
  0x45, 0x4b, 0x00, 0x90, 0x29, 0x4b, 0x23, 0x80, 0x46, 0x00, 0x83, 0x79,
  0x90, 0x30, 0x4b, 0x3c, 0x80, 0x29, 0x00, 0x83, 0x3e, 0x90, 0x35, 0x46,
  0x3c, 0x80, 0x30, 0x00, 0x8e, 0x71, 0x80, 0x35, 0x00, 0x3d, 0x90, 0x29,
  0x4b, 0x84, 0x1c, 0x90, 0x30, 0x4b, 0x3c, 0x80, 0x29, 0x00, 0x83, 0x3e,
  0x90, 0x35, 0x46, 0x3c, 0x80, 0x30, 0x00, 0x8e, 0x71, 0x80, 0x35, 0x00,
  0x38, 0x80, 0x45, 0x00, 0x05, 0x90, 0x45, 0x4b, 0x00, 0x90, 0x2e, 0x4b,
  0x84, 0x1c, 0x90, 0x35, 0x4b, 0x3c, 0x80, 0x2e, 0x00, 0x83, 0x3e, 0x90,
  0x3a, 0x46, 0x3c, 0x80, 0x35, 0x00, 0x87, 0x3c, 0x90, 0x4a, 0x4b, 0x50,
  0x80, 0x45, 0x00, 0x86, 0x65, 0x80, 0x3a, 0x00, 0x3d, 0x90, 0x45, 0x4b,
  0x00, 0x90, 0x2e, 0x4b, 0x23, 0x80, 0x4a, 0x00, 0x83, 0x79, 0x90, 0x35,
  0x4b, 0x3c, 0x80, 0x2e, 0x00, 0x83, 0x3e, 0x90, 0x3a, 0x46, 0x3c, 0x80,
  0x35, 0x00, 0x87, 0x3c, 0x90, 0x4a, 0x4b, 0x50, 0x80, 0x45, 0x00, 0x86,
  0x65, 0x80, 0x3a, 0x00, 0x3d, 0x90, 0x48, 0x4b, 0x00, 0x90, 0x2d, 0x4b,
  0x23, 0x80, 0x4a, 0x00, 0x83, 0x79, 0x90, 0x34, 0x4b, 0x3c, 0x80, 0x2d,
  0x00, 0x83, 0x3e, 0x90, 0x39, 0x46, 0x3c, 0x80, 0x34, 0x00, 0x87, 0x3c,
  0x90, 0x47, 0x4b, 0x50, 0x80, 0x48, 0x00, 0x83, 0x25, 0x90, 0x48, 0x4b,
  0x3c, 0x80, 0x47, 0x00, 0x83, 0x04, 0x80, 0x39, 0x00, 0x3d, 0x90, 0x45,
  0x46, 0x00, 0x90, 0x2d, 0x4b, 0x38, 0x80, 0x48, 0x00, 0x83, 0x64, 0x90,
  0x34, 0x4b, 0x3c, 0x80, 0x2d, 0x00, 0x83, 0x3e, 0x90, 0x39, 0x46, 0x3c,
  0x80, 0x34, 0x00, 0x8e, 0x71, 0x80, 0x45, 0x00, 0x00, 0x80, 0x39, 0x00,
  0x3d, 0x90, 0x43, 0x4b, 0x00, 0x90, 0x2c, 0x4b, 0x84, 0x1c, 0x90, 0x33,
  0x4b, 0x3c, 0x80, 0x2c, 0x00, 0x83, 0x3e, 0x90, 0x38, 0x46, 0x3c, 0x80,
  0x33, 0x00, 0x87, 0x3c, 0x90, 0x48, 0x4b, 0x50, 0x80, 0x43, 0x00, 0x86,
  0x65, 0x80, 0x38, 0x00, 0x3d, 0x90, 0x43, 0x4b, 0x00, 0x90, 0x2c, 0x4b,
  0x23, 0x80, 0x48, 0x00, 0x83, 0x79, 0x90, 0x33, 0x4b, 0x3c, 0x80, 0x2c,
  0x00, 0x83, 0x3e, 0x90, 0x41, 0x4b, 0x00, 0x90, 0x38, 0x46, 0x27, 0x80,
  0x43, 0x00, 0x15, 0x80, 0x33, 0x00, 0x87, 0x3c, 0x90, 0x43, 0x4b, 0x27,
  0x80, 0x41, 0x00, 0x87, 0x0e, 0x80, 0x38, 0x00, 0x3d, 0x90, 0x45, 0x4b,
  0x00, 0x90, 0x2b, 0x4b, 0x23, 0x80, 0x43, 0x00, 0x83, 0x79, 0x90, 0x32,
  0x4b, 0x3c, 0x80, 0x2b, 0x00, 0x83, 0x3e, 0x90, 0x37, 0x46, 0x3c, 0x80,
  0x32, 0x00, 0x8e, 0x71, 0x80, 0x37, 0x00, 0x3d, 0x90, 0x47, 0x46, 0x00,
  0x90, 0x2a, 0x4b, 0x75, 0x80, 0x45, 0x00, 0x83, 0x27, 0x90, 0x31, 0x4b,
  0x3c, 0x80, 0x2a, 0x00, 0x83, 0x3e, 0x90, 0x36, 0x46, 0x3c, 0x80, 0x31,
  0x00, 0x8e, 0x71, 0x80, 0x47, 0x00, 0x00, 0x80, 0x36, 0x00, 0x3d, 0x90,
  0x47, 0x4b, 0x00, 0x90, 0x29, 0x4b, 0x84, 0x1e, 0x90, 0x30, 0x4b, 0x3c,
  0x80, 0x29, 0x00, 0x83, 0x40, 0x90, 0x40, 0x43, 0x00, 0x90, 0x43, 0x51,
  0x00, 0x90, 0x35, 0x46, 0x3c, 0x80, 0x30, 0x00, 0x8f, 0x31, 0x80, 0x47,
  0x00, 0x01, 0x90, 0x45, 0x4c, 0x83, 0x5a, 0x80, 0x45, 0x00, 0x1f, 0x90,
  0x43, 0x4b, 0x83, 0x42, 0x80, 0x35, 0x00, 0x1a, 0x80, 0x43, 0x00, 0x1e,
  0x80, 0x40, 0x00, 0x00, 0x80, 0x43, 0x00, 0x05, 0x90, 0x45, 0x4b, 0x00,
  0x90, 0x2e, 0x4b, 0x84, 0x1e, 0x90, 0x35, 0x4b, 0x3c, 0x80, 0x2e, 0x00,
  0x83, 0x40, 0x90, 0x3c, 0x43, 0x00, 0x90, 0x41, 0x51, 0x00, 0x90, 0x3a,
  0x46, 0x3c, 0x80, 0x35, 0x00, 0x96, 0x6d, 0x80, 0x3a, 0x00, 0x38, 0x80,
  0x45, 0x00, 0x00, 0x80, 0x3c, 0x00, 0x00, 0x80, 0x41, 0x00, 0x05, 0x90,
  0x4a, 0x4b, 0x00, 0x90, 0x27, 0x4a, 0x84, 0x1e, 0x90, 0x2e, 0x4b, 0x3c,
  0x80, 0x27, 0x00, 0x83, 0x40, 0x90, 0x43, 0x43, 0x00, 0x90, 0x46, 0x51,
  0x00, 0x90, 0x33, 0x46, 0x3c, 0x80, 0x2e, 0x00, 0x8f, 0x31, 0x80, 0x4a,
  0x00, 0x01, 0x90, 0x48, 0x4c, 0x83, 0x5a, 0x80, 0x48, 0x00, 0x1f, 0x90,
  0x46, 0x4b, 0x83, 0x42, 0x80, 0x33, 0x00, 0x1a, 0x80, 0x46, 0x00, 0x1e,
  0x80, 0x43, 0x00, 0x00, 0x80, 0x46, 0x00, 0x05, 0x90, 0x48, 0x4b, 0x00,
  0x90, 0x2c, 0x4b, 0x84, 0x1e, 0x90, 0x33, 0x4b, 0x3c, 0x80, 0x2c, 0x00,
  0x83, 0x40, 0x90, 0x3f, 0x43, 0x00, 0x90, 0x44, 0x51, 0x00, 0x90, 0x38,
  0x46, 0x3c, 0x80, 0x33, 0x00, 0x96, 0x6d, 0x80, 0x38, 0x00, 0x38, 0x80,
  0x48, 0x00, 0x00, 0x80, 0x3f, 0x00, 0x00, 0x80, 0x44, 0x00, 0x05, 0x90,
  0x48, 0x4b, 0x00, 0x90, 0x2d, 0x4b, 0x84, 0x1e, 0x90, 0x34, 0x4b, 0x3c,
  0x80, 0x2d, 0x00, 0x83, 0x40, 0x90, 0x40, 0x43, 0x00, 0x90, 0x45, 0x51,
  0x00, 0x90, 0x39, 0x46, 0x3c, 0x80, 0x34, 0x00, 0x8f, 0x31, 0x80, 0x48,
  0x00, 0x01, 0x90, 0x47, 0x4c, 0x83, 0x5a, 0x80, 0x47, 0x00, 0x1f, 0x90,
  0x45, 0x4b, 0x83, 0x42, 0x80, 0x39, 0x00, 0x1a, 0x80, 0x45, 0x00, 0x1e,
  0x80, 0x40, 0x00, 0x00, 0x80, 0x45, 0x00, 0x05, 0x90, 0x48, 0x4b, 0x00,
  0x90, 0x26, 0x4a, 0x84, 0x1e, 0x90, 0x2d, 0x4b, 0x3c, 0x80, 0x26, 0x00,
  0x83, 0x40, 0x90, 0x40, 0x43, 0x00, 0x90, 0x42, 0x51, 0x00, 0x90, 0x32,
  0x46, 0x3c, 0x80, 0x2d, 0x00, 0x8f, 0x31, 0x80, 0x48, 0x00, 0x01, 0x90,
  0x47, 0x4c, 0x83, 0x5a, 0x80, 0x47, 0x00, 0x1f, 0x90, 0x45, 0x4b, 0x83,
  0x42, 0x80, 0x32, 0x00, 0x1a, 0x80, 0x45, 0x00, 0x1e, 0x80, 0x40, 0x00,
  0x00, 0x80, 0x42, 0x00, 0x05, 0x90, 0x47, 0x4b, 0x00, 0x90, 0x2b, 0x4b,
  0x84, 0x1e, 0x90, 0x32, 0x4b, 0x3c, 0x80, 0x2b, 0x00, 0x83, 0x40, 0x90,
  0x3e, 0x4e, 0x00, 0x90, 0x42, 0x49, 0x00, 0x90, 0x37, 0x46, 0x3c, 0x80,
  0x32, 0x00, 0x96, 0x6d, 0x80, 0x37, 0x00, 0x3d, 0x90, 0x2b, 0x4b, 0x84,
  0x1e, 0x90, 0x32, 0x4b, 0x3c, 0x80, 0x2b, 0x00, 0x83, 0x40, 0x90, 0x37,
  0x46, 0x3c, 0x80, 0x32, 0x00, 0x96, 0x6d, 0x80, 0x37, 0x00, 0x38, 0x80,
  0x47, 0x00, 0x00, 0x80, 0x3e, 0x00, 0x00, 0x80, 0x42, 0x00, 0x05, 0x90,
  0x47, 0x4b, 0x00, 0x90, 0x29, 0x4b, 0x84, 0x1e, 0x90, 0x30, 0x4b, 0x3c,
  0x80, 0x29, 0x00, 0x83, 0x40, 0x90, 0x40, 0x43, 0x00, 0x90, 0x43, 0x51,
  0x00, 0x90, 0x35, 0x46, 0x3c, 0x80, 0x30, 0x00, 0x8f, 0x31, 0x80, 0x47,
  0x00, 0x01, 0x90, 0x45, 0x4c, 0x83, 0x5a, 0x80, 0x45, 0x00, 0x1f, 0x90,
  0x43, 0x4b, 0x83, 0x42, 0x80, 0x35, 0x00, 0x1a, 0x80, 0x43, 0x00, 0x1e,
  0x80, 0x40, 0x00, 0x00, 0x80, 0x43, 0x00, 0x05, 0x90, 0x45, 0x4b, 0x00,
  0x90, 0x2e, 0x4b, 0x84, 0x1e, 0x90, 0x35, 0x4b, 0x3c, 0x80, 0x2e, 0x00,
  0x83, 0x40, 0x90, 0x3c, 0x43, 0x00, 0x90, 0x41, 0x51, 0x00, 0x90, 0x3a,
  0x46, 0x3c, 0x80, 0x35, 0x00, 0x96, 0x6d, 0x80, 0x3a, 0x00, 0x38, 0x80,
  0x45, 0x00, 0x00, 0x80, 0x3c, 0x00, 0x00, 0x80, 0x41, 0x00, 0x05, 0x90,
  0x4a, 0x4b, 0x00, 0x90, 0x27, 0x4a, 0x84, 0x1e, 0x90, 0x2e, 0x4b, 0x3c,
  0x80, 0x27, 0x00, 0x83, 0x40, 0x90, 0x43, 0x43, 0x00, 0x90, 0x46, 0x51,
  0x00, 0x90, 0x33, 0x46, 0x3c, 0x80, 0x2e, 0x00, 0x8f, 0x31, 0x80, 0x4a,
  0x00, 0x01, 0x90, 0x48, 0x4c, 0x83, 0x5a, 0x80, 0x48, 0x00, 0x1f, 0x90,
  0x46, 0x4b, 0x83, 0x42, 0x80, 0x33, 0x00, 0x1a, 0x80, 0x46, 0x00, 0x1e,
  0x80, 0x43, 0x00, 0x00, 0x80, 0x46, 0x00, 0x05, 0x90, 0x48, 0x4b, 0x00,
  0x90, 0x2c, 0x4b, 0x84, 0x1e, 0x90, 0x33, 0x4b, 0x3c, 0x80, 0x2c, 0x00,
  0x83, 0x40, 0x90, 0x3f, 0x43, 0x00, 0x90, 0x44, 0x51, 0x00, 0x90, 0x38,
  0x46, 0x3c, 0x80, 0x33, 0x00, 0x96, 0x6d, 0x80, 0x38, 0x00, 0x38, 0x80,
  0x48, 0x00, 0x00, 0x80, 0x3f, 0x00, 0x00, 0x80, 0x44, 0x00, 0x05, 0x90,
  0x48, 0x4b, 0x00, 0x90, 0x2d, 0x4b, 0x84, 0x1e, 0x90, 0x34, 0x4b, 0x3c,
  0x80, 0x2d, 0x00, 0x83, 0x40, 0x90, 0x40, 0x43, 0x00, 0x90, 0x45, 0x51,
  0x00, 0x90, 0x39, 0x46, 0x3c, 0x80, 0x34, 0x00, 0x8f, 0x31, 0x80, 0x48,
  0x00, 0x01, 0x90, 0x47, 0x4c, 0x83, 0x5a, 0x80, 0x47, 0x00, 0x1f, 0x90,
  0x45, 0x4b, 0x83, 0x42, 0x80, 0x39, 0x00, 0x1a, 0x80, 0x45, 0x00, 0x1e,
  0x80, 0x40, 0x00, 0x00, 0x80, 0x45, 0x00, 0x05, 0x90, 0x48, 0x4b, 0x00,
  0x90, 0x26, 0x4a, 0x84, 0x1e, 0x90, 0x2d, 0x4b, 0x3c, 0x80, 0x26, 0x00,
  0x83, 0x40, 0x90, 0x40, 0x43, 0x00, 0x90, 0x42, 0x51, 0x00, 0x90, 0x32,
  0x46, 0x3c, 0x80, 0x2d, 0x00, 0x8f, 0x31, 0x80, 0x48, 0x00, 0x01, 0x90,
  0x47, 0x4c, 0x83, 0x5a, 0x80, 0x47, 0x00, 0x1f, 0x90, 0x45, 0x4b, 0x83,
  0x42, 0x80, 0x32, 0x00, 0x1a, 0x80, 0x45, 0x00, 0x1e, 0x80, 0x40, 0x00,
  0x00, 0x80, 0x42, 0x00, 0x05, 0x90, 0x47, 0x4b, 0x00, 0x90, 0x2b, 0x4b,
  0x84, 0x1e, 0x90, 0x32, 0x4b, 0x3c, 0x80, 0x2b, 0x00, 0x83, 0x40, 0x90,
  0x3e, 0x4e, 0x00, 0x90, 0x42, 0x49, 0x00, 0x90, 0x37, 0x46, 0x3c, 0x80,
  0x32, 0x00, 0x96, 0x6d, 0x80, 0x37, 0x00, 0x3d, 0x90, 0x2b, 0x4b, 0x84,
  0x1e, 0x90, 0x32, 0x4b, 0x3c, 0x80, 0x2b, 0x00, 0x83, 0x40, 0x90, 0x37,
  0x46, 0x3c, 0x80, 0x32, 0x00, 0x96, 0x6d, 0x80, 0x37, 0x00, 0x38, 0x80,
  0x47, 0x00, 0x00, 0x80, 0x3e, 0x00, 0x00, 0x80, 0x42, 0x00, 0x05, 0x90,
  0x45, 0x4b, 0x00, 0x90, 0x2e, 0x4b, 0x84, 0x1c, 0x90, 0x35, 0x4b, 0x3c,
  0x80, 0x2e, 0x00, 0x83, 0x3e, 0x90, 0x3a, 0x46, 0x3c, 0x80, 0x35, 0x00,
  0x87, 0x3c, 0x90, 0x4a, 0x4b, 0x50, 0x80, 0x45, 0x00, 0x86, 0x65, 0x80,
  0x3a, 0x00, 0x3d, 0x90, 0x45, 0x4b, 0x00, 0x90, 0x2e, 0x4b, 0x23, 0x80,
  0x4a, 0x00, 0x83, 0x79, 0x90, 0x35, 0x4b, 0x3c, 0x80, 0x2e, 0x00, 0x83,
  0x3e, 0x90, 0x3a, 0x46, 0x3c, 0x80, 0x35, 0x00, 0x87, 0x3c, 0x90, 0x4a,
  0x4b, 0x50, 0x80, 0x45, 0x00, 0x86, 0x65, 0x80, 0x3a, 0x00, 0x3d, 0x90,
  0x48, 0x4b, 0x00, 0x90, 0x2d, 0x4b, 0x23, 0x80, 0x4a, 0x00, 0x83, 0x79,
  0x90, 0x34, 0x4b, 0x3c, 0x80, 0x2d, 0x00, 0x83, 0x3e, 0x90, 0x39, 0x46,
  0x3c, 0x80, 0x34, 0x00, 0x87, 0x3c, 0x90, 0x47, 0x4b, 0x50, 0x80, 0x48,
  0x00, 0x83, 0x25, 0x90, 0x48, 0x4b, 0x3c, 0x80, 0x47, 0x00, 0x83, 0x04,
  0x80, 0x39, 0x00, 0x3d, 0x90, 0x45, 0x46, 0x00, 0x90, 0x2d, 0x4b, 0x38,
  0x80, 0x48, 0x00, 0x83, 0x64, 0x90, 0x34, 0x4b, 0x3c, 0x80, 0x2d, 0x00,
  0x83, 0x3e, 0x90, 0x39, 0x46, 0x3c, 0x80, 0x34, 0x00, 0x8e, 0x71, 0x80,
  0x45, 0x00, 0x00, 0x80, 0x39, 0x00, 0x3d, 0x90, 0x41, 0x4b, 0x00, 0x90,
  0x2b, 0x4b, 0x84, 0x1c, 0x90, 0x32, 0x4b, 0x3c, 0x80, 0x2b, 0x00, 0x83,
  0x3e, 0x90, 0x37, 0x46, 0x3c, 0x80, 0x32, 0x00, 0x87, 0x3c, 0x90, 0x46,
  0x4b, 0x50, 0x80, 0x41, 0x00, 0x86, 0x65, 0x80, 0x37, 0x00, 0x3d, 0x90,
  0x41, 0x4b, 0x00, 0x90, 0x24, 0x49, 0x23, 0x80, 0x46, 0x00, 0x83, 0x79,
  0x90, 0x2b, 0x4b, 0x3c, 0x80, 0x24, 0x00, 0x83, 0x3e, 0x90, 0x40, 0x4b,
  0x00, 0x90, 0x30, 0x46, 0x27, 0x80, 0x41, 0x00, 0x15, 0x80, 0x2b, 0x00,
  0x87, 0x3c, 0x90, 0x46, 0x4b, 0x27, 0x80, 0x40, 0x00, 0x87, 0x0e, 0x80,
  0x30, 0x00, 0x3d, 0x90, 0x45, 0x4b, 0x00, 0x90, 0x29, 0x4b, 0x23, 0x80,
  0x46, 0x00, 0x83, 0x79, 0x90, 0x30, 0x4b, 0x3c, 0x80, 0x29, 0x00, 0x83,
  0x3e, 0x90, 0x35, 0x46, 0x3c, 0x80, 0x30, 0x00, 0x8e, 0x71, 0x80, 0x35,
  0x00, 0x3d, 0x90, 0x29, 0x4b, 0x84, 0x1c, 0x90, 0x30, 0x4b, 0x3c, 0x80,
  0x29, 0x00, 0x83, 0x3e, 0x90, 0x35, 0x46, 0x3c, 0x80, 0x30, 0x00, 0x8e,
  0x71, 0x80, 0x35, 0x00, 0x38, 0x80, 0x45, 0x00, 0x05, 0x90, 0x45, 0x4b,
  0x00, 0x90, 0x2e, 0x4b, 0x84, 0x1c, 0x90, 0x35, 0x4b, 0x3c, 0x80, 0x2e,
  0x00, 0x83, 0x3e, 0x90, 0x3a, 0x46, 0x3c, 0x80, 0x35, 0x00, 0x87, 0x3c,
  0x90, 0x4a, 0x4b, 0x50, 0x80, 0x45, 0x00, 0x86, 0x65, 0x80, 0x3a, 0x00,
  0x3d, 0x90, 0x45, 0x4b, 0x00, 0x90, 0x2e, 0x4b, 0x23, 0x80, 0x4a, 0x00,
  0x83, 0x79, 0x90, 0x35, 0x4b, 0x3c, 0x80, 0x2e, 0x00, 0x83, 0x3e, 0x90,
  0x3a, 0x46, 0x3c, 0x80, 0x35, 0x00, 0x87, 0x3c, 0x90, 0x4a, 0x4b, 0x50,
  0x80, 0x45, 0x00, 0x86, 0x65, 0x80, 0x3a, 0x00, 0x3d, 0x90, 0x48, 0x4b,
  0x00, 0x90, 0x2d, 0x4b, 0x23, 0x80, 0x4a, 0x00, 0x83, 0x79, 0x90, 0x34,
  0x4b, 0x3c, 0x80, 0x2d, 0x00, 0x83, 0x3e, 0x90, 0x39, 0x46, 0x3c, 0x80,
  0x34, 0x00, 0x87, 0x3c, 0x90, 0x47, 0x4b, 0x50, 0x80, 0x48, 0x00, 0x83,
  0x25, 0x90, 0x48, 0x4b, 0x3c, 0x80, 0x47, 0x00, 0x83, 0x04, 0x80, 0x39,
  0x00, 0x3d, 0x90, 0x45, 0x46, 0x00, 0x90, 0x2d, 0x4b, 0x38, 0x80, 0x48,
  0x00, 0x83, 0x64, 0x90, 0x34, 0x4b, 0x3c, 0x80, 0x2d, 0x00, 0x83, 0x3e,
  0x90, 0x39, 0x46, 0x3c, 0x80, 0x34, 0x00, 0x8e, 0x71, 0x80, 0x45, 0x00,
  0x00, 0x80, 0x39, 0x00, 0x3d, 0x90, 0x43, 0x4b, 0x00, 0x90, 0x2c, 0x4b,
  0x84, 0x1c, 0x90, 0x33, 0x4b, 0x3c, 0x80, 0x2c, 0x00, 0x83, 0x3e, 0x90,
  0x38, 0x46, 0x3c, 0x80, 0x33, 0x00, 0x87, 0x3c, 0x90, 0x48, 0x4b, 0x50,
  0x80, 0x43, 0x00, 0x86, 0x65, 0x80, 0x38, 0x00, 0x3d, 0x90, 0x43, 0x4b,
  0x00, 0x90, 0x2c, 0x4b, 0x23, 0x80, 0x48, 0x00, 0x83, 0x79, 0x90, 0x33,
  0x4b, 0x3c, 0x80, 0x2c, 0x00, 0x83, 0x3e, 0x90, 0x41, 0x4b, 0x00, 0x90,
  0x38, 0x46, 0x27, 0x80, 0x43, 0x00, 0x15, 0x80, 0x33, 0x00, 0x87, 0x3c,
  0x90, 0x43, 0x4b, 0x27, 0x80, 0x41, 0x00, 0x87, 0x0e, 0x80, 0x38, 0x00,
  0x3d, 0x90, 0x45, 0x4b, 0x00, 0x90, 0x2b, 0x4b, 0x23, 0x80, 0x43, 0x00,
  0x83, 0x79, 0x90, 0x32, 0x4b, 0x3c, 0x80, 0x2b, 0x00, 0x83, 0x3e, 0x90,
  0x37, 0x46, 0x3c, 0x80, 0x32, 0x00, 0x8e, 0x71, 0x80, 0x37, 0x00, 0x3d,
  0x90, 0x47, 0x46, 0x00, 0x90, 0x2a, 0x4b, 0x75, 0x80, 0x45, 0x00, 0x83,
  0x27, 0x90, 0x31, 0x4b, 0x3c, 0x80, 0x2a, 0x00, 0x83, 0x3e, 0x90, 0x36,
  0x46, 0x3c, 0x80, 0x31, 0x00, 0x8e, 0x71, 0x80, 0x47, 0x00, 0x00, 0x80,
  0x36, 0x00, 0x01, 0xff, 0x2f, 0x00
};
unsigned int lz_midi_len = 6210;
